<?xml version="1.0" encoding="UTF-8" standalone="no"?>
<svg
   xmlns:dc="http://purl.org/dc/elements/1.1/"
   xmlns:cc="http://creativecommons.org/ns#"
   xmlns:rdf="http://www.w3.org/1999/02/22-rdf-syntax-ns#"
   xmlns:svg="http://www.w3.org/2000/svg"
   xmlns="http://www.w3.org/2000/svg"
   xmlns:sodipodi="http://sodipodi.sourceforge.net/DTD/sodipodi-0.dtd"
   xmlns:inkscape="http://www.inkscape.org/namespaces/inkscape"
   inkscape:version="1.0 (4035a4fb49, 2020-05-01)"
   sodipodi:docname="note.svg"
   xml:space="preserve"
   style="enable-background:new 0 0 100 100;"
   viewBox="0 0 100 100"
   y="0px"
   x="0px"
   id="Capa_1"
   version="1.1"><metadata
   id="metadata53"><rdf:RDF><cc:Work
       rdf:about=""><dc:format>image/svg+xml</dc:format><dc:type
         rdf:resource="http://purl.org/dc/dcmitype/StillImage" /></cc:Work></rdf:RDF></metadata><defs
   id="defs51" /><sodipodi:namedview
   inkscape:current-layer="Capa_1"
   inkscape:window-maximized="0"
   inkscape:window-y="143"
   inkscape:window-x="0"
   inkscape:cy="197.11265"
   inkscape:cx="208.36231"
   inkscape:zoom="0.41503906"
   showgrid="false"
   id="namedview49"
   inkscape:window-height="776"
   inkscape:window-width="1459"
   inkscape:pageshadow="2"
   inkscape:pageopacity="0"
   guidetolerance="10"
   gridtolerance="10"
   objecttolerance="10"
   borderopacity="1"
   bordercolor="#666666"
   pagecolor="#ffffff" />
<g
   transform="matrix(0.21793122,0,0,0.1953125,-5.7904324,0)"
   id="g16">
	<g
   id="g14">
		<g
   id="g12">
			<path
   id="path2"
   d="m 352.459,220 c 0,-11.046 -8.954,-20 -20,-20 h -206 c -11.046,0 -20,8.954 -20,20 0,11.046 8.954,20 20,20 h 206 c 11.046,0 20,-8.954 20,-20 z" />
			<path
   id="path4"
   d="m 126.459,280 c -11.046,0 -20,8.954 -20,20 0,11.046 8.954,20 20,20 H 251.57 c 11.046,0 20,-8.954 20,-20 0,-11.046 -8.954,-20 -20,-20 z" />
			<path
   id="path6"
   d="M 173.459,472 H 106.57 c -22.056,0 -40,-17.944 -40,-40 V 80 c 0,-22.056 17.944,-40 40,-40 h 245.889 c 22.056,0 40,17.944 40,40 v 123 c 0,11.046 8.954,20 20,20 11.046,0 20,-8.954 20,-20 V 80 c 0,-44.112 -35.888,-80 -80,-80 H 106.57 c -44.112,0 -80,35.888 -80,80 v 352 c 0,44.112 35.888,80 80,80 h 66.889 c 11.046,0 20,-8.954 20,-20 0,-11.046 -8.954,-20 -20,-20 z" />
			<path
   id="path8"
   d="m 467.884,289.572 c -23.394,-23.394 -61.458,-23.395 -84.837,-0.016 l -109.803,109.56 c -2.332,2.327 -4.052,5.193 -5.01,8.345 l -23.913,78.725 c -2.12,6.98 -0.273,14.559 4.821,19.78 3.816,3.911 9,6.034 14.317,6.034 1.779,0 3.575,-0.238 5.338,-0.727 l 80.725,-22.361 c 3.322,-0.92 6.35,-2.683 8.79,-5.119 L 467.885,374.426 c 23.394,-23.394 23.394,-61.458 -10e-4,-84.854 z m -134.108,162.196 -40.612,11.25 11.885,-39.129 74.089,-73.925 28.29,28.29 z m 105.839,-105.638 -3.875,3.867 -28.285,-28.285 3.862,-3.854 c 7.798,-7.798 20.486,-7.798 28.284,0 7.798,7.798 7.798,20.486 0.014,28.272 z" />
			<path
   id="path10"
   d="m 332.459,120 h -206 c -11.046,0 -20,8.954 -20,20 0,11.046 8.954,20 20,20 h 206 c 11.046,0 20,-8.954 20,-20 0,-11.046 -8.954,-20 -20,-20 z" />
		</g>
	</g>
</g>
<g
   id="g18">
</g>
<g
   id="g20">
</g>
<g
   id="g22">
</g>
<g
   id="g24">
</g>
<g
   id="g26">
</g>
<g
   id="g28">
</g>
<g
   id="g30">
</g>
<g
   id="g32">
</g>
<g
   id="g34">
</g>
<g
   id="g36">
</g>
<g
   id="g38">
</g>
<g
   id="g40">
</g>
<g
   id="g42">
</g>
<g
   id="g44">
</g>
<g
   id="g46">
</g>
</svg>
