<?xml version="1.0" encoding="UTF-8" standalone="no"?>
<svg
   xmlns:dc="http://purl.org/dc/elements/1.1/"
   xmlns:cc="http://creativecommons.org/ns#"
   xmlns:rdf="http://www.w3.org/1999/02/22-rdf-syntax-ns#"
   xmlns:svg="http://www.w3.org/2000/svg"
   xmlns="http://www.w3.org/2000/svg"
   xmlns:sodipodi="http://sodipodi.sourceforge.net/DTD/sodipodi-0.dtd"
   xmlns:inkscape="http://www.inkscape.org/namespaces/inkscape"
   version="1.1"
   id="Layer_1"
   x="0px"
   y="0px"
   viewBox="0 0 100 100"
   xml:space="preserve"
   sodipodi:docname="print.svg"
   inkscape:version="1.0 (4035a4fb49, 2020-05-01)"><metadata
   id="metadata61"><rdf:RDF><cc:Work
       rdf:about=""><dc:format>image/svg+xml</dc:format><dc:type
         rdf:resource="http://purl.org/dc/dcmitype/StillImage" /></cc:Work></rdf:RDF></metadata><defs
   id="defs59" /><sodipodi:namedview
   inkscape:document-rotation="0"
   pagecolor="#ffffff"
   bordercolor="#666666"
   borderopacity="1"
   objecttolerance="10"
   gridtolerance="10"
   guidetolerance="10"
   inkscape:pageopacity="0"
   inkscape:pageshadow="2"
   inkscape:window-width="1920"
   inkscape:window-height="1017"
   id="namedview57"
   showgrid="false"
   showguides="false"
   inkscape:zoom="0.83007813"
   inkscape:cx="4.8421775"
   inkscape:cy="115.27442"
   inkscape:window-x="-8"
   inkscape:window-y="135"
   inkscape:window-maximized="1"
   inkscape:current-layer="Layer_1" />
<g
   id="g6"
   transform="matrix(0.1953125,0,0,0.1953125,0,-3.5283203)"
   style="stroke-width:10.24;stroke-miterlimit:4;stroke-dasharray:none">
	<g
   id="g4"
   style="stroke-width:10.24;stroke-miterlimit:4;stroke-dasharray:none">
		<g
   style="opacity:1"
   id="g856"><path
     id="path858"
     d="M 472.178,133.907 H 417.875 V 35.132 c 0,-9.425 -7.641,-17.067 -17.067,-17.067 H 111.192 c -9.425,0 -17.067,7.641 -17.067,17.067 v 98.775 H 39.822 C 17.864,133.907 0,151.772 0,173.73 v 171.702 c 0,21.958 17.864,39.822 39.822,39.822 h 54.306 v 91.614 c 0,9.425 7.641,17.067 17.067,17.067 h 289.61 c 9.425,0 17.067,-7.641 17.067,-17.067 v -91.614 h 54.306 C 494.136,385.254 512,367.39 512,345.432 V 173.73 c 0,-21.957 -17.864,-39.823 -39.822,-39.823 z M 128.258,52.199 h 255.483 v 81.708 H 128.258 Z m 255.48,407.602 H 128.262 V 320.173 h 255.477 c -10e-4,4.229 -10e-4,136.421 -10e-4,139.628 z m 94.129,-114.368 c 0,3.137 -2.552,5.689 -5.689,5.689 h -54.306 v -48.014 c 0,-9.425 -7.641,-17.067 -17.067,-17.067 h -289.61 c -9.425,0 -17.067,7.641 -17.067,17.067 v 48.014 H 39.822 c -3.137,0 -5.689,-2.552 -5.689,-5.689 V 173.731 c 0,-3.137 2.552,-5.689 5.689,-5.689 h 432.356 c 3.137,0 5.689,2.552 5.689,5.689 z"
     style="color:#000000;font-style:normal;font-variant:normal;font-weight:normal;font-stretch:normal;font-size:medium;line-height:normal;font-family:sans-serif;font-variant-ligatures:normal;font-variant-position:normal;font-variant-caps:normal;font-variant-numeric:normal;font-variant-alternates:normal;font-variant-east-asian:normal;font-feature-settings:normal;font-variation-settings:normal;text-indent:0;text-align:start;text-decoration:none;text-decoration-line:none;text-decoration-style:solid;text-decoration-color:#000000;letter-spacing:normal;word-spacing:normal;text-transform:none;writing-mode:lr-tb;direction:ltr;text-orientation:mixed;dominant-baseline:auto;baseline-shift:baseline;text-anchor:start;white-space:normal;shape-padding:0;shape-margin:0;inline-size:0;clip-rule:nonzero;display:inline;overflow:visible;visibility:visible;isolation:auto;mix-blend-mode:normal;color-interpolation:sRGB;color-interpolation-filters:linearRGB;solid-color:#000000;solid-opacity:1;vector-effect:none;fill:#000000;fill-opacity:1;fill-rule:nonzero;stroke-width:10.24;stroke-linecap:butt;stroke-linejoin:miter;stroke-miterlimit:4;stroke-dasharray:none;stroke-dashoffset:0;stroke-opacity:1.0;color-rendering:auto;image-rendering:auto;shape-rendering:auto;text-rendering:auto;enable-background:accumulate;stop-color:#000000;stop-opacity:1;stroke:none;" /><path
     id="path860"
     d="M 111.19141 12.945312 C 98.999162 12.945312 89.005859 22.939499 89.005859 35.132812 L 89.005859 128.78711 L 39.822266 128.78711 C 15.087182 128.78711 -5.1191406 148.99554 -5.1191406 173.73047 L -5.1191406 345.43164 C -5.1191406 370.16657 15.087338 390.37305 39.822266 390.37305 L 89.007812 390.37305 L 89.007812 476.86719 C 89.007812 489.05943 99.001999 499.05469 111.19531 499.05469 L 400.80469 499.05469 C 412.99693 499.05469 422.99219 489.0605 422.99219 476.86719 L 422.99219 390.37305 L 472.17773 390.37305 C 496.91266 390.37305 517.11914 370.16657 517.11914 345.43164 L 517.11914 173.73047 C 517.11914 148.99641 496.91297 128.78711 472.17773 128.78711 L 422.99414 128.78711 L 422.99414 35.132812 C 422.99414 22.940568 413.00191 12.945312 400.80859 12.945312 L 111.19141 12.945312 z M 111.19141 23.185547 L 400.80859 23.185547 C 407.46728 23.185547 412.75586 28.475057 412.75586 35.132812 L 412.75586 139.02734 L 472.17773 139.02734 C 491.3585 139.02734 506.88086 154.55052 506.88086 173.73047 L 506.88086 345.43164 C 506.88086 364.61271 491.35881 380.13477 472.17773 380.13477 L 412.75195 380.13477 L 412.75195 476.86719 C 412.75195 483.52587 407.46244 488.81445 400.80469 488.81445 L 111.19531 488.81445 C 104.53663 488.81445 99.248047 483.52494 99.248047 476.86719 L 99.248047 380.13477 L 39.822266 380.13477 C 20.641194 380.13477 5.1191406 364.61271 5.1191406 345.43164 L 5.1191406 173.73047 C 5.1191406 154.5494 20.641349 139.02734 39.822266 139.02734 L 99.244141 139.02734 L 99.244141 35.132812 C 99.244141 28.474126 104.53365 23.185547 111.19141 23.185547 z M 123.13867 47.078125 L 123.13867 52.199219 L 123.13867 139.02734 L 388.86133 139.02734 L 388.86133 47.078125 L 123.13867 47.078125 z M 133.37891 57.318359 L 378.62109 57.318359 L 378.62109 128.78711 L 133.37891 128.78711 L 133.37891 57.318359 z M 39.822266 162.92188 C 33.908464 162.92188 29.013672 167.81667 29.013672 173.73047 L 29.013672 345.43359 C 29.013672 351.3474 33.908464 356.24219 39.822266 356.24219 L 99.248047 356.24219 L 99.248047 303.10742 C 99.248047 296.44873 104.53756 291.16016 111.19531 291.16016 L 400.80469 291.16016 C 407.46337 291.16016 412.75195 296.44967 412.75195 303.10742 L 412.75195 356.24219 L 472.17773 356.24219 C 478.09154 356.24219 482.98633 351.3474 482.98633 345.43359 L 482.98633 173.73047 C 482.98633 167.81667 478.09154 162.92188 472.17773 162.92188 L 39.822266 162.92188 z M 39.822266 173.16211 L 472.17773 173.16211 C 472.53793 173.16211 472.74609 173.37027 472.74609 173.73047 L 472.74609 345.43359 C 472.74609 345.79379 472.53793 346.00195 472.17773 346.00195 L 422.99219 346.00195 L 422.99219 303.10742 C 422.99219 290.91518 412.998 280.92188 400.80469 280.92188 L 111.19531 280.92188 C 99.003068 280.92188 89.007813 290.91411 89.007812 303.10742 L 89.007812 346.00195 L 39.822266 346.00195 C 39.462067 346.00195 39.253906 345.79379 39.253906 345.43359 L 39.253906 173.73047 C 39.253906 173.37027 39.462067 173.16211 39.822266 173.16211 z M 123.14258 315.05273 L 123.14258 464.92188 L 388.85742 464.92188 L 388.85742 459.80078 C 388.85742 456.59378 388.85838 324.3776 388.85938 320.17383 L 388.85938 315.05273 L 123.14258 315.05273 z M 133.38281 325.29297 L 378.61914 325.29297 C 378.61828 337.60972 378.61719 443.26723 378.61719 454.68164 L 133.38281 454.68164 L 133.38281 325.29297 z "
     style="color:#000000;font-style:normal;font-variant:normal;font-weight:normal;font-stretch:normal;font-size:medium;line-height:normal;font-family:sans-serif;font-variant-ligatures:normal;font-variant-position:normal;font-variant-caps:normal;font-variant-numeric:normal;font-variant-alternates:normal;font-variant-east-asian:normal;font-feature-settings:normal;font-variation-settings:normal;text-indent:0;text-align:start;text-decoration:none;text-decoration-line:none;text-decoration-style:solid;text-decoration-color:#000000;letter-spacing:normal;word-spacing:normal;text-transform:none;writing-mode:lr-tb;direction:ltr;text-orientation:mixed;dominant-baseline:auto;baseline-shift:baseline;text-anchor:start;white-space:normal;shape-padding:0;shape-margin:0;inline-size:0;clip-rule:nonzero;display:inline;overflow:visible;visibility:visible;isolation:auto;mix-blend-mode:normal;color-interpolation:sRGB;color-interpolation-filters:linearRGB;solid-color:#000000;solid-opacity:1;vector-effect:none;fill-opacity:1;fill-rule:nonzero;stroke-width:10.24;stroke-linecap:butt;stroke-linejoin:miter;stroke-miterlimit:4;stroke-dasharray:none;stroke-dashoffset:0;stroke-opacity:1.0;color-rendering:auto;image-rendering:auto;shape-rendering:auto;text-rendering:auto;enable-background:accumulate;stop-color:#000000;stop-opacity:1;stroke:none;" /></g>
	</g>
</g>
<g
   id="g12"
   transform="matrix(0.1953125,0,0,0.1953125,0,-3.5283203)"
   style="stroke-width:10.24;stroke-miterlimit:4;stroke-dasharray:none">
	<g
   id="g10"
   style="stroke-width:10.24;stroke-miterlimit:4;stroke-dasharray:none">
		<g
   style="opacity:1"
   id="g862"><path
     id="path864"
     d="m 400.808,199.988 h -43.443 c -9.425,0 -17.067,7.641 -17.067,17.067 0,9.426 7.641,17.067 17.067,17.067 h 43.443 c 9.425,0 17.067,-7.641 17.067,-17.067 0,-9.426 -7.641,-17.067 -17.067,-17.067 z"
     style="color:#000000;font-style:normal;font-variant:normal;font-weight:normal;font-stretch:normal;font-size:medium;line-height:normal;font-family:sans-serif;font-variant-ligatures:normal;font-variant-position:normal;font-variant-caps:normal;font-variant-numeric:normal;font-variant-alternates:normal;font-variant-east-asian:normal;font-feature-settings:normal;font-variation-settings:normal;text-indent:0;text-align:start;text-decoration:none;text-decoration-line:none;text-decoration-style:solid;text-decoration-color:#000000;letter-spacing:normal;word-spacing:normal;text-transform:none;writing-mode:lr-tb;direction:ltr;text-orientation:mixed;dominant-baseline:auto;baseline-shift:baseline;text-anchor:start;white-space:normal;shape-padding:0;shape-margin:0;inline-size:0;clip-rule:nonzero;display:inline;overflow:visible;visibility:visible;isolation:auto;mix-blend-mode:normal;color-interpolation:sRGB;color-interpolation-filters:linearRGB;solid-color:#000000;solid-opacity:1;vector-effect:none;fill:#000000;fill-opacity:1;fill-rule:nonzero;stroke-width:10.24;stroke-linecap:butt;stroke-linejoin:miter;stroke-miterlimit:4;stroke-dasharray:none;stroke-dashoffset:0;stroke-opacity:1.0;color-rendering:auto;image-rendering:auto;shape-rendering:auto;text-rendering:auto;enable-background:accumulate;stop-color:#000000;stop-opacity:1;stroke:none;" /><path
     id="path866"
     d="M 357.36523 194.86719 C 345.17299 194.86719 335.17773 204.86137 335.17773 217.05469 C 335.17773 229.24764 345.17228 239.24219 357.36523 239.24219 L 400.80859 239.24219 C 413.00084 239.24219 422.99414 229.248 422.99414 217.05469 C 422.99414 204.86174 413.00154 194.86719 400.80859 194.86719 L 357.36523 194.86719 z M 357.36523 205.10742 L 400.80859 205.10742 C 407.46764 205.10742 412.75586 210.39564 412.75586 217.05469 C 412.75586 223.71337 407.46635 229.00195 400.80859 229.00195 L 357.36523 229.00195 C 350.70619 229.00195 345.41797 223.71374 345.41797 217.05469 C 345.41797 210.396 350.70748 205.10742 357.36523 205.10742 z "
     style="color:#000000;font-style:normal;font-variant:normal;font-weight:normal;font-stretch:normal;font-size:medium;line-height:normal;font-family:sans-serif;font-variant-ligatures:normal;font-variant-position:normal;font-variant-caps:normal;font-variant-numeric:normal;font-variant-alternates:normal;font-variant-east-asian:normal;font-feature-settings:normal;font-variation-settings:normal;text-indent:0;text-align:start;text-decoration:none;text-decoration-line:none;text-decoration-style:solid;text-decoration-color:#000000;letter-spacing:normal;word-spacing:normal;text-transform:none;writing-mode:lr-tb;direction:ltr;text-orientation:mixed;dominant-baseline:auto;baseline-shift:baseline;text-anchor:start;white-space:normal;shape-padding:0;shape-margin:0;inline-size:0;clip-rule:nonzero;display:inline;overflow:visible;visibility:visible;isolation:auto;mix-blend-mode:normal;color-interpolation:sRGB;color-interpolation-filters:linearRGB;solid-color:#000000;solid-opacity:1;vector-effect:none;fill-opacity:1;fill-rule:nonzero;stroke-width:10.24;stroke-linecap:butt;stroke-linejoin:miter;stroke-miterlimit:4;stroke-dasharray:none;stroke-dashoffset:0;stroke-opacity:1.0;color-rendering:auto;image-rendering:auto;shape-rendering:auto;text-rendering:auto;enable-background:accumulate;stop-color:#000000;stop-opacity:1;stroke:none;" /></g>
	</g>
</g>
<g
   id="g18"
   transform="matrix(0.1953125,0,0,0.1953125,0,-3.5283203)"
   style="stroke-width:10.24;stroke-miterlimit:4;stroke-dasharray:none">
	<g
   id="g16"
   style="stroke-width:10.24;stroke-miterlimit:4;stroke-dasharray:none">
		<g
   style="opacity:1"
   id="g868"><path
     id="path870"
     d="M 329.956,399.834 H 182.044 c -9.425,0 -17.067,7.641 -17.067,17.067 0,9.426 7.641,17.067 17.067,17.067 h 147.911 c 9.425,0 17.067,-7.641 17.067,-17.067 0,-9.426 -7.641,-17.067 -17.066,-17.067 z"
     style="color:#000000;font-style:normal;font-variant:normal;font-weight:normal;font-stretch:normal;font-size:medium;line-height:normal;font-family:sans-serif;font-variant-ligatures:normal;font-variant-position:normal;font-variant-caps:normal;font-variant-numeric:normal;font-variant-alternates:normal;font-variant-east-asian:normal;font-feature-settings:normal;font-variation-settings:normal;text-indent:0;text-align:start;text-decoration:none;text-decoration-line:none;text-decoration-style:solid;text-decoration-color:#000000;letter-spacing:normal;word-spacing:normal;text-transform:none;writing-mode:lr-tb;direction:ltr;text-orientation:mixed;dominant-baseline:auto;baseline-shift:baseline;text-anchor:start;white-space:normal;shape-padding:0;shape-margin:0;inline-size:0;clip-rule:nonzero;display:inline;overflow:visible;visibility:visible;isolation:auto;mix-blend-mode:normal;color-interpolation:sRGB;color-interpolation-filters:linearRGB;solid-color:#000000;solid-opacity:1;vector-effect:none;fill:#000000;fill-opacity:1;fill-rule:nonzero;stroke-width:10.24;stroke-linecap:butt;stroke-linejoin:miter;stroke-miterlimit:4;stroke-dasharray:none;stroke-dashoffset:0;stroke-opacity:1.0;color-rendering:auto;image-rendering:auto;shape-rendering:auto;text-rendering:auto;enable-background:accumulate;stop-color:#000000;stop-opacity:1;stroke:none;" /><path
     id="path872"
     d="M 182.04492 394.71484 C 169.85268 394.71484 159.85742 404.70708 159.85742 416.90039 C 159.85742 429.09334 169.85197 439.08789 182.04492 439.08789 L 329.95508 439.08789 C 342.14732 439.08789 352.14258 429.0937 352.14258 416.90039 C 352.14258 404.70744 342.14732 394.71484 329.95508 394.71484 L 182.04492 394.71484 z M 182.04492 404.95312 L 329.95508 404.95312 C 336.61283 404.95312 341.90234 410.24134 341.90234 416.90039 C 341.90234 423.55908 336.61283 428.84766 329.95508 428.84766 L 182.04492 428.84766 C 175.38587 428.84766 170.09766 423.55944 170.09766 416.90039 C 170.09766 410.2417 175.38717 404.95312 182.04492 404.95312 z "
     style="color:#000000;font-style:normal;font-variant:normal;font-weight:normal;font-stretch:normal;font-size:medium;line-height:normal;font-family:sans-serif;font-variant-ligatures:normal;font-variant-position:normal;font-variant-caps:normal;font-variant-numeric:normal;font-variant-alternates:normal;font-variant-east-asian:normal;font-feature-settings:normal;font-variation-settings:normal;text-indent:0;text-align:start;text-decoration:none;text-decoration-line:none;text-decoration-style:solid;text-decoration-color:#000000;letter-spacing:normal;word-spacing:normal;text-transform:none;writing-mode:lr-tb;direction:ltr;text-orientation:mixed;dominant-baseline:auto;baseline-shift:baseline;text-anchor:start;white-space:normal;shape-padding:0;shape-margin:0;inline-size:0;clip-rule:nonzero;display:inline;overflow:visible;visibility:visible;isolation:auto;mix-blend-mode:normal;color-interpolation:sRGB;color-interpolation-filters:linearRGB;solid-color:#000000;solid-opacity:1;vector-effect:none;fill-opacity:1;fill-rule:nonzero;stroke-width:10.24;stroke-linecap:butt;stroke-linejoin:miter;stroke-miterlimit:4;stroke-dasharray:none;stroke-dashoffset:0;stroke-opacity:1.0;color-rendering:auto;image-rendering:auto;shape-rendering:auto;text-rendering:auto;enable-background:accumulate;stop-color:#000000;stop-opacity:1;stroke:none;" /></g>
	</g>
</g>
<g
   id="g24"
   transform="matrix(0.1953125,0,0,0.1953125,0,-3.5283203)"
   style="stroke-width:10.24;stroke-miterlimit:4;stroke-dasharray:none">
	<g
   id="g22"
   style="stroke-width:10.24;stroke-miterlimit:4;stroke-dasharray:none">
		<g
   style="opacity:1"
   id="g874"><path
     id="path876"
     d="M 329.956,346.006 H 182.044 c -9.425,0 -17.067,7.641 -17.067,17.067 0,9.426 7.641,17.067 17.067,17.067 h 147.911 c 9.425,0 17.067,-7.641 17.067,-17.067 0,-9.426 -7.641,-17.067 -17.066,-17.067 z"
     style="color:#000000;font-style:normal;font-variant:normal;font-weight:normal;font-stretch:normal;font-size:medium;line-height:normal;font-family:sans-serif;font-variant-ligatures:normal;font-variant-position:normal;font-variant-caps:normal;font-variant-numeric:normal;font-variant-alternates:normal;font-variant-east-asian:normal;font-feature-settings:normal;font-variation-settings:normal;text-indent:0;text-align:start;text-decoration:none;text-decoration-line:none;text-decoration-style:solid;text-decoration-color:#000000;letter-spacing:normal;word-spacing:normal;text-transform:none;writing-mode:lr-tb;direction:ltr;text-orientation:mixed;dominant-baseline:auto;baseline-shift:baseline;text-anchor:start;white-space:normal;shape-padding:0;shape-margin:0;inline-size:0;clip-rule:nonzero;display:inline;overflow:visible;visibility:visible;isolation:auto;mix-blend-mode:normal;color-interpolation:sRGB;color-interpolation-filters:linearRGB;solid-color:#000000;solid-opacity:1;vector-effect:none;fill:#000000;fill-opacity:1;fill-rule:nonzero;stroke-width:10.24;stroke-linecap:butt;stroke-linejoin:miter;stroke-miterlimit:4;stroke-dasharray:none;stroke-dashoffset:0;stroke-opacity:1.0;color-rendering:auto;image-rendering:auto;shape-rendering:auto;text-rendering:auto;enable-background:accumulate;stop-color:#000000;stop-opacity:1;stroke:none;" /><path
     id="path878"
     d="M 182.04492 340.88672 C 169.85268 340.88672 159.85742 350.87895 159.85742 363.07227 C 159.85742 375.26522 169.85197 385.25977 182.04492 385.25977 L 329.95508 385.25977 C 342.14732 385.25977 352.14258 375.26558 352.14258 363.07227 C 352.14258 350.87931 342.14732 340.88672 329.95508 340.88672 L 182.04492 340.88672 z M 182.04492 351.12695 L 329.95508 351.12695 C 336.61283 351.12695 341.90234 356.41322 341.90234 363.07227 C 341.90234 369.73095 336.61283 375.01953 329.95508 375.01953 L 182.04492 375.01953 C 175.38587 375.01953 170.09766 369.73131 170.09766 363.07227 C 170.09766 356.41358 175.38717 351.12695 182.04492 351.12695 z "
     style="color:#000000;font-style:normal;font-variant:normal;font-weight:normal;font-stretch:normal;font-size:medium;line-height:normal;font-family:sans-serif;font-variant-ligatures:normal;font-variant-position:normal;font-variant-caps:normal;font-variant-numeric:normal;font-variant-alternates:normal;font-variant-east-asian:normal;font-feature-settings:normal;font-variation-settings:normal;text-indent:0;text-align:start;text-decoration:none;text-decoration-line:none;text-decoration-style:solid;text-decoration-color:#000000;letter-spacing:normal;word-spacing:normal;text-transform:none;writing-mode:lr-tb;direction:ltr;text-orientation:mixed;dominant-baseline:auto;baseline-shift:baseline;text-anchor:start;white-space:normal;shape-padding:0;shape-margin:0;inline-size:0;clip-rule:nonzero;display:inline;overflow:visible;visibility:visible;isolation:auto;mix-blend-mode:normal;color-interpolation:sRGB;color-interpolation-filters:linearRGB;solid-color:#000000;solid-opacity:1;vector-effect:none;fill-opacity:1;fill-rule:nonzero;stroke-width:10.24;stroke-linecap:butt;stroke-linejoin:miter;stroke-miterlimit:4;stroke-dasharray:none;stroke-dashoffset:0;stroke-opacity:1.0;color-rendering:auto;image-rendering:auto;shape-rendering:auto;text-rendering:auto;enable-background:accumulate;stop-color:#000000;stop-opacity:1;stroke:none;" /></g>
	</g>
</g>
<g
   id="g26"
   transform="matrix(0.1953125,0,0,0.1953125,0,-3.5283203)"
   style="stroke-width:5.12">
</g>
<g
   id="g28"
   transform="matrix(0.1953125,0,0,0.1953125,0,-3.5283203)"
   style="stroke-width:5.12">
</g>
<g
   id="g30"
   transform="matrix(0.1953125,0,0,0.1953125,0,-3.5283203)"
   style="stroke-width:5.12">
</g>
<g
   id="g32"
   transform="matrix(0.1953125,0,0,0.1953125,0,-3.5283203)"
   style="stroke-width:5.12">
</g>
<g
   id="g34"
   transform="matrix(0.1953125,0,0,0.1953125,0,-3.5283203)"
   style="stroke-width:5.12">
</g>
<g
   id="g36"
   transform="matrix(0.1953125,0,0,0.1953125,0,-3.5283203)"
   style="stroke-width:5.12">
</g>
<g
   id="g38"
   transform="matrix(0.1953125,0,0,0.1953125,0,-3.5283203)"
   style="stroke-width:5.12">
</g>
<g
   id="g40"
   transform="matrix(0.1953125,0,0,0.1953125,0,-3.5283203)"
   style="stroke-width:5.12">
</g>
<g
   id="g42"
   transform="matrix(0.1953125,0,0,0.1953125,0,-3.5283203)"
   style="stroke-width:5.12">
</g>
<g
   id="g44"
   transform="matrix(0.1953125,0,0,0.1953125,0,-3.5283203)"
   style="stroke-width:5.12">
</g>
<g
   id="g46"
   transform="matrix(0.1953125,0,0,0.1953125,0,-3.5283203)"
   style="stroke-width:5.12">
</g>
<g
   id="g48"
   transform="matrix(0.1953125,0,0,0.1953125,0,-3.5283203)"
   style="stroke-width:5.12">
</g>
<g
   id="g50"
   transform="matrix(0.1953125,0,0,0.1953125,0,-3.5283203)"
   style="stroke-width:5.12">
</g>
<g
   id="g52"
   transform="matrix(0.1953125,0,0,0.1953125,0,-3.5283203)"
   style="stroke-width:5.12">
</g>
<g
   id="g54"
   transform="matrix(0.1953125,0,0,0.1953125,0,-3.5283203)"
   style="stroke-width:5.12">
</g>
</svg>
