<?xml version="1.0" encoding="UTF-8" standalone="no"?>
<svg
   xmlns:dc="http://purl.org/dc/elements/1.1/"
   xmlns:cc="http://creativecommons.org/ns#"
   xmlns:rdf="http://www.w3.org/1999/02/22-rdf-syntax-ns#"
   xmlns:svg="http://www.w3.org/2000/svg"
   xmlns="http://www.w3.org/2000/svg"
   xmlns:sodipodi="http://sodipodi.sourceforge.net/DTD/sodipodi-0.dtd"
   xmlns:inkscape="http://www.inkscape.org/namespaces/inkscape"
   width="100"
   height="100"
   viewBox="0 0 100 100"
   id="svg2"
   version="1.1"
   inkscape:version="1.0 (4035a4fb49, 2020-05-01)"
   sodipodi:docname="rotate180.svg">
  <defs
     id="defs4" />
  <sodipodi:namedview
     id="base"
     pagecolor="#ffffff"
     bordercolor="#666666"
     borderopacity="1.0"
     inkscape:pageopacity="0.0"
     inkscape:pageshadow="2"
     inkscape:zoom="4"
     inkscape:cx="50.875"
     inkscape:cy="53.167416"
     inkscape:document-units="px"
     inkscape:current-layer="layer1"
     showgrid="true"
     inkscape:window-width="1122"
     inkscape:window-height="636"
     inkscape:window-x="463"
     inkscape:window-y="305"
     inkscape:window-maximized="0"
     borderlayer="true"
     width="10mm"
     units="px"
     inkscape:snap-bbox="true"
     inkscape:bbox-nodes="true"
     inkscape:document-rotation="0">
    <inkscape:grid
       type="xygrid"
       id="grid4136"
       spacingx="2.5"
       spacingy="2.5"
       empspacing="5"
       originx="2.5"
       originy="2.5" />
  </sodipodi:namedview>
  <metadata
     id="metadata7">
    <rdf:RDF>
      <cc:Work
         rdf:about="">
        <dc:format>image/svg+xml</dc:format>
        <dc:type
           rdf:resource="http://purl.org/dc/dcmitype/StillImage" />
        <dc:title></dc:title>
      </cc:Work>
    </rdf:RDF>
  </metadata>
  <g
     inkscape:label="Layer 1"
     inkscape:groupmode="layer"
     id="layer1"
     transform="translate(0,-952.36217)">
    <path
       inkscape:connector-curvature="0"
       style="fill:#000000;fill-opacity:1;stroke-width:0;stroke-miterlimit:4;stroke-dasharray:none"
       d="m 6.694611,1002.9474 15.0489,1.9863 -0.051,-4.3769 c 0,-19.32996 15.6719,-34.00006 35.00195,-33.99996 19.33,0 35,15.67 35,34.99996 0,7.1082 -2.1191,13.721 -5.7598,19.2422 -0.5264,0.7983 -1.0875,1.5714 -1.6758,2.3222 l -7.1484,-7.1464 c 0.071,-0.1 0.1476,-0.196 0.2168,-0.2969 2.755,-4.0179 4.3672,-8.8814 4.3672,-14.1211 0,-13.80716 -11.1929,-24.99996 -25,-24.99996 -13.80725,-10e-5 -25.00195,10.1928 -25.00195,23.99996 h -0.039 l -0.012,4.3769 15.0527,-1.9902 -20.0019,35.2246 -19.9981,-35.2207 z"
       id="rect4138-4-6" />
    <text
       id="text19"
       y="999.26062"
       x="36.96875"
       style="font-style:normal;font-weight:normal;font-size:20px;line-height:1.25;font-family:sans-serif;fill:#000000;fill-opacity:1;stroke:none"
       xml:space="preserve"><tspan
         y="1001.26062"
         x="34.96875"
         id="tspan17"
         sodipodi:role="line">180°</tspan></text>
  </g>
</svg>
