<?xml version="1.0" encoding="UTF-8" standalone="no"?>
<svg
   xmlns:dc="http://purl.org/dc/elements/1.1/"
   xmlns:cc="http://creativecommons.org/ns#"
   xmlns:rdf="http://www.w3.org/1999/02/22-rdf-syntax-ns#"
   xmlns:svg="http://www.w3.org/2000/svg"
   xmlns="http://www.w3.org/2000/svg"
   xmlns:sodipodi="http://sodipodi.sourceforge.net/DTD/sodipodi-0.dtd"
   xmlns:inkscape="http://www.inkscape.org/namespaces/inkscape"
   sodipodi:docname="rotateL.svg"
   inkscape:version="1.0 (4035a4fb49, 2020-05-01)"
   version="1.1"
   id="svg2"
   viewBox="0 0 100 100"
   height="100"
   width="100">
  <defs
     id="defs4" />
  <sodipodi:namedview
     inkscape:document-rotation="0"
     inkscape:bbox-nodes="true"
     inkscape:snap-bbox="true"
     units="px"
     width="10mm"
     borderlayer="true"
     inkscape:window-maximized="0"
     inkscape:window-y="305"
     inkscape:window-x="463"
     inkscape:window-height="636"
     inkscape:window-width="1122"
     showgrid="true"
     inkscape:current-layer="layer1"
     inkscape:document-units="px"
     inkscape:cy="53.167416"
     inkscape:cx="50.678451"
     inkscape:zoom="4"
     inkscape:pageshadow="2"
     inkscape:pageopacity="0.0"
     borderopacity="1.0"
     bordercolor="#666666"
     pagecolor="#ffffff"
     id="base">
    <inkscape:grid
       originy="2.5"
       originx="2.5"
       empspacing="5"
       spacingy="2.5"
       spacingx="2.5"
       id="grid4136"
       type="xygrid" />
  </sodipodi:namedview>
  <metadata
     id="metadata7">
    <rdf:RDF>
      <cc:Work
         rdf:about="">
        <dc:format>image/svg+xml</dc:format>
        <dc:type
           rdf:resource="http://purl.org/dc/dcmitype/StillImage" />
        <dc:title></dc:title>
      </cc:Work>
    </rdf:RDF>
  </metadata>
  <g
     transform="translate(0,-952.36217)"
     id="layer1"
     inkscape:groupmode="layer"
     inkscape:label="Layer 1">
    <path
       id="rect4138-4-6"
       d="M 48.609375,959.86219 46.623047,974.91102 51,974.86022 c 19.329978,0 34.000017,15.6719 34,35.00198 0,19.33 -15.670034,35 -35,35 -7.108209,0 -13.721029,-2.1191 -19.242187,-5.7598 -0.798315,-0.5264 -1.571422,-1.0875 -2.322266,-1.6758 l 7.146484,-7.1484 c 0.09981,0.071 0.195995,0.1476 0.296875,0.2168 4.017887,2.755 8.881377,4.3672 14.121094,4.3672 13.807119,0 25,-11.1929 25,-25 1.7e-5,-13.80723 -10.19287,-25.00198 -24,-25.00198 v -0.0391 l -4.376953,-0.0117 1.990234,15.05273 -35.224609,-20.00193 35.220703,-19.99805 z"
       style="fill:#000000;fill-opacity:1;stroke-width:0;stroke-miterlimit:4;stroke-dasharray:none"
       inkscape:connector-curvature="0" />
  </g>
</svg>
