<?xml version="1.0" encoding="UTF-8" standalone="no"?>
<svg
   xmlns:dc="http://purl.org/dc/elements/1.1/"
   xmlns:cc="http://creativecommons.org/ns#"
   xmlns:rdf="http://www.w3.org/1999/02/22-rdf-syntax-ns#"
   xmlns:svg="http://www.w3.org/2000/svg"
   xmlns="http://www.w3.org/2000/svg"
   xmlns:sodipodi="http://sodipodi.sourceforge.net/DTD/sodipodi-0.dtd"
   xmlns:inkscape="http://www.inkscape.org/namespaces/inkscape"
   version="1.1"
   id="Capa_1"
   x="0px"
   y="0px"
   viewBox="0 0 100 100"
   xml:space="preserve"
   sodipodi:docname="toggleNotes.svg"
   inkscape:version="1.0 (4035a4fb49, 2020-05-01)"><metadata
   id="metadata43"><rdf:RDF><cc:Work
       rdf:about=""><dc:format>image/svg+xml</dc:format><dc:type
         rdf:resource="http://purl.org/dc/dcmitype/StillImage" /></cc:Work></rdf:RDF></metadata><defs
   id="defs41" /><sodipodi:namedview
   inkscape:document-rotation="0"
   pagecolor="#ffffff"
   bordercolor="#666666"
   borderopacity="1"
   objecttolerance="10"
   gridtolerance="10"
   guidetolerance="10"
   inkscape:pageopacity="0"
   inkscape:pageshadow="2"
   inkscape:window-width="1630"
   inkscape:window-height="775"
   id="namedview39"
   showgrid="false"
   inkscape:zoom="1.5026019"
   inkscape:cx="23.896139"
   inkscape:cy="49.392005"
   inkscape:window-x="0"
   inkscape:window-y="143"
   inkscape:window-maximized="0"
   inkscape:current-layer="Capa_1" />
<g
   id="g6"
   transform="matrix(0.20926139,0,0,0.20926139,1.9768465e-4,0.40051438)"
   style="stroke-width:9.55742481;stroke-miterlimit:4;stroke-dasharray:none">
	<g
   id="g4"
   style="stroke-width:9.55742481;stroke-miterlimit:4;stroke-dasharray:none">
		<g
   style="opacity:1"
   id="g847"><path
     id="path849"
     d="M 474.609,228.901 C 445.603,190.899 410.766,157.726 371.39,130.614 l 67.345,-67.345 c 6.78,-6.548 6.968,-17.352 0.42,-24.132 -6.548,-6.78 -17.352,-6.968 -24.132,-0.42 -0.142,0.137 -0.282,0.277 -0.42,0.42 l -73.574,73.506 C 309.712,95.407 274.676,86.036 238.936,85.336 109.229,85.336 7.529,223.03 3.262,228.9 c -4.349,5.983 -4.349,14.087 0,20.07 29.006,38.002 63.843,71.175 103.219,98.287 l -67.345,67.345 c -6.78,6.548 -6.968,17.352 -0.42,24.132 6.548,6.78 17.352,6.968 24.132,0.42 0.142,-0.137 0.282,-0.277 0.42,-0.42 l 73.574,-73.506 c 31.317,17.236 66.353,26.607 102.093,27.307 129.707,0 231.407,-137.694 235.674,-143.565 4.35,-5.982 4.35,-14.086 0,-20.069 z M 131.296,322.494 C 96.529,299.338 65.365,271.183 38.812,238.936 63.934,208.506 145.41,119.469 238.936,119.469 c 26.609,0.538 52.77,6.949 76.612,18.773 L 285.92,167.87 c -39.2,-26.025 -92.076,-15.345 -118.101,23.855 -18.958,28.555 -18.958,65.691 0,94.246 z m 153.72,-105.489 c 3.34,6.83 5.091,14.328 5.12,21.931 0,28.277 -22.923,51.2 -51.2,51.2 -7.603,-0.029 -15.101,-1.78 -21.931,-5.12 z m -92.16,43.861 c -3.34,-6.83 -5.091,-14.328 -5.12,-21.931 0,-28.277 22.923,-51.2 51.2,-51.2 7.603,0.029 15.101,1.78 21.931,5.12 z m 46.08,97.536 c -26.609,-0.538 -52.769,-6.949 -76.612,-18.773 l 29.628,-29.628 c 39.2,26.025 92.076,15.345 118.101,-23.855 18.958,-28.555 18.958,-65.691 0,-94.246 l 36.523,-36.523 c 34.767,23.156 65.931,51.312 92.484,83.558 -25.123,30.431 -106.599,119.467 -200.124,119.467 z"
     style="color:#000000;font-style:normal;font-variant:normal;font-weight:normal;font-stretch:normal;font-size:medium;line-height:normal;font-family:sans-serif;font-variant-ligatures:normal;font-variant-position:normal;font-variant-caps:normal;font-variant-numeric:normal;font-variant-alternates:normal;font-variant-east-asian:normal;font-feature-settings:normal;font-variation-settings:normal;text-indent:0;text-align:start;text-decoration:none;text-decoration-line:none;text-decoration-style:solid;text-decoration-color:#000000;letter-spacing:normal;word-spacing:normal;text-transform:none;writing-mode:lr-tb;direction:ltr;text-orientation:mixed;dominant-baseline:auto;baseline-shift:baseline;text-anchor:start;white-space:normal;shape-padding:0;shape-margin:0;inline-size:0;clip-rule:nonzero;display:inline;overflow:visible;visibility:visible;isolation:auto;mix-blend-mode:normal;color-interpolation:sRGB;color-interpolation-filters:linearRGB;solid-color:#000000;solid-opacity:1;vector-effect:none;fill:#000000;fill-opacity:1;fill-rule:nonzero;stroke-width:9.55742;stroke-linecap:butt;stroke-linejoin:miter;stroke-miterlimit:4;stroke-dasharray:none;stroke-dashoffset:0;stroke-opacity:1.0;color-rendering:auto;image-rendering:auto;shape-rendering:auto;text-rendering:auto;enable-background:accumulate;stop-color:#000000;stop-opacity:1;stroke:none;" /><path
     id="path851"
     d="M 427.25781 29.181641 C 421.65799 29.084184 416.02192 31.108282 411.70312 35.279297 C 411.54142 35.435349 411.38164 35.594452 411.22461 35.755859 L 340.10938 106.80664 C 308.93393 90.296167 274.33371 81.250062 239.0293 80.558594 L 238.98242 80.556641 L 238.93555 80.556641 C 172.39106 80.556641 113.6424 115.69485 70.998047 151.24609 C 28.35369 186.79734 1.697846 222.92392 -0.60351562 226.08984 C -6.1592084 233.73291 -6.1592084 244.13623 -0.60351562 251.7793 L -0.5703125 251.82422 L -0.53710938 251.86914 C 27.616831 288.75482 61.255661 321.07692 99.125 347.85547 L 35.816406 411.16406 C 27.178791 419.50611 26.937268 433.41709 35.279297 442.05469 C 43.620699 450.69163 57.528275 450.9338 66.166016 442.59375 L 66.167969 442.5918 C 66.329344 442.43606 66.487816 442.2763 66.644531 442.11523 L 66.707031 442.05273 L 137.76172 371.06445 C 168.93716 387.57493 203.53738 396.62103 238.8418 397.3125 L 238.88867 397.31445 L 238.93555 397.31445 C 305.48004 397.31445 364.22673 362.17638 406.87109 326.625 C 449.51382 291.07498 476.16972 254.95252 478.47461 251.78125 L 478.47461 251.7793 C 484.03097 244.1371 484.03124 233.7344 478.47461 226.0918 L 478.44141 226.04492 L 478.4082 226.00195 C 450.25426 189.11627 416.61543 156.79418 378.74609 130.01562 L 442.05469 66.707031 C 450.6923 58.364981 450.93383 44.453999 442.5918 35.816406 C 438.42077 31.497599 432.85763 29.279098 427.25781 29.181641 z M 427.09375 38.677734 C 430.22793 38.732277 433.33982 39.995839 435.7168 42.457031 C 440.47077 47.379439 440.3384 55.078082 435.41602 59.832031 L 435.38477 59.861328 L 363.95117 131.29492 L 368.67969 134.55078 C 407.61518 161.35947 442.06489 194.15778 470.75391 231.72852 C 473.88481 236.0497 473.88273 241.84405 470.74414 246.16016 C 468.78025 248.86228 442.45109 284.51983 400.75195 319.2832 C 359.06017 354.04044 302.11792 387.74201 238.96875 387.75391 C 204.02351 387.05963 169.76775 377.8941 139.14648 361.04102 L 136.00195 359.31055 L 59.859375 435.38477 L 59.830078 435.41602 C 59.73129 435.51838 59.630075 435.61761 59.529297 435.71484 L 59.527344 435.7168 C 54.604936 440.47077 46.908246 440.33645 42.154297 435.41406 C 37.400326 430.49166 37.532693 422.79301 42.455078 418.03906 L 42.486328 418.00977 L 113.91992 346.57617 L 109.19141 343.32031 C 70.255914 316.51162 35.806202 283.71332 7.1171875 246.14258 C 3.9870239 241.82141 3.9886973 236.02634 7.1269531 231.70898 C 9.0925915 229.00491 35.419997 193.35114 77.119141 158.58789 C 118.81092 123.83077 175.75317 90.129084 238.90234 90.117188 C 273.84759 90.81146 308.10335 99.976992 338.72461 116.83008 L 341.86914 118.55859 L 418.01172 42.486328 L 418.04102 42.455078 C 418.1398 42.352711 418.24102 42.253479 418.3418 42.15625 L 418.3418 42.154297 C 420.803 39.777311 423.95957 38.623191 427.09375 38.677734 z M 238.93555 114.68945 C 142.37665 114.68945 60.56486 205.08188 35.126953 235.89453 L 32.619141 238.93164 L 35.123047 241.97461 C 61.974711 274.58432 93.488609 303.05437 128.64648 326.4707 L 131.90625 328.64258 L 134.67578 325.87305 L 173.96289 286.58594 L 171.80078 283.32812 C 153.89877 256.36367 153.89877 221.33164 171.80078 194.36719 C 196.3973 157.31883 246.22894 147.25502 283.27734 171.85156 L 286.53516 174.01367 L 323.63086 136.91602 L 317.67188 133.96094 C 293.1993 121.82422 266.34601 115.24364 239.0332 114.69141 L 238.98438 114.68945 L 238.93555 114.68945 z M 238.91016 124.25 C 262.54825 124.73741 285.80121 130.03665 307.32617 139.70508 L 285.16016 161.87109 C 244.18804 137.17568 190.55367 148.84154 163.83789 189.08203 C 144.55512 218.12621 143.90748 255.58888 161.78125 285.25 L 130.73633 316.29492 C 98.771467 294.57376 69.965475 268.55188 45.115234 238.95508 C 72.224011 206.75324 150.92603 124.26608 238.91016 124.25 z M 345.9668 149.22852 L 303.9082 191.28516 L 306.07227 194.54297 C 323.97428 221.50742 323.97428 256.5375 306.07227 283.50195 C 281.47575 320.55031 231.6441 330.61608 194.5957 306.01953 L 191.33789 303.85742 L 154.24023 340.95508 L 160.20117 343.91016 C 184.67463 356.04681 211.52703 362.62746 238.83984 363.17969 L 238.88672 363.18164 L 238.93555 363.18164 C 335.49344 363.18164 417.30718 272.79022 442.74609 241.97656 L 445.25391 238.93945 L 442.74805 235.89648 C 415.89643 203.28785 384.38254 174.81676 349.22461 151.40039 L 345.9668 149.22852 z M 347.13477 161.57617 C 379.09957 183.29722 407.90748 209.31818 432.75781 238.91406 C 405.64908 271.11591 326.9452 353.60502 238.96094 353.62109 C 215.32351 353.13343 192.07194 347.83423 170.54688 338.16602 L 192.71094 316.00195 C 233.68302 340.69718 287.31942 329.02947 314.03516 288.78906 C 333.31811 259.7446 333.96415 222.28235 316.08984 192.62109 L 347.13477 161.57617 z M 238.93555 182.95703 C 208.07594 182.95703 182.95703 208.07594 182.95703 238.93555 L 182.95703 238.94336 L 182.95703 238.95312 C 182.98878 247.27783 184.90572 255.48705 188.5625 262.96484 L 191.50391 268.97656 L 196.23438 264.24414 L 268.97852 191.50195 L 262.9668 188.5625 C 255.489 184.90572 247.27978 182.98878 238.95508 182.95703 L 238.94531 182.95703 L 238.93555 182.95703 z M 238.92969 192.51367 C 243.48848 192.53223 247.9873 193.29871 252.31445 194.65039 L 194.65039 252.3125 C 193.29895 247.9857 192.53419 243.48612 192.51562 238.92773 C 192.5199 213.239 213.2407 192.51688 238.92969 192.51367 z M 286.36914 208.89453 L 281.63672 213.625 L 208.89453 286.36914 L 214.90625 289.30859 C 222.38405 292.96538 230.59326 294.88231 238.91797 294.91406 L 238.92773 294.91406 L 238.93555 294.91406 C 269.79515 294.91406 294.91406 269.79515 294.91406 238.93555 L 294.91406 238.92773 L 294.91406 238.91797 C 294.88231 230.59326 292.96538 222.38405 289.30859 214.90625 L 286.36914 208.89453 z M 283.2207 225.55859 C 284.57215 229.88539 285.33886 234.38497 285.35742 238.94336 C 285.35315 264.63143 264.63143 285.35315 238.94336 285.35742 C 234.38497 285.33886 229.88539 284.57215 225.55859 283.2207 L 283.2207 225.55859 z "
     style="color:#000000;font-style:normal;font-variant:normal;font-weight:normal;font-stretch:normal;font-size:medium;line-height:normal;font-family:sans-serif;font-variant-ligatures:normal;font-variant-position:normal;font-variant-caps:normal;font-variant-numeric:normal;font-variant-alternates:normal;font-variant-east-asian:normal;font-feature-settings:normal;font-variation-settings:normal;text-indent:0;text-align:start;text-decoration:none;text-decoration-line:none;text-decoration-style:solid;text-decoration-color:#000000;letter-spacing:normal;word-spacing:normal;text-transform:none;writing-mode:lr-tb;direction:ltr;text-orientation:mixed;dominant-baseline:auto;baseline-shift:baseline;text-anchor:start;white-space:normal;shape-padding:0;shape-margin:0;inline-size:0;clip-rule:nonzero;display:inline;overflow:visible;visibility:visible;isolation:auto;mix-blend-mode:normal;color-interpolation:sRGB;color-interpolation-filters:linearRGB;solid-color:#000000;solid-opacity:1;vector-effect:none;fill-opacity:1;fill-rule:nonzero;stroke-width:9.55742;stroke-linecap:butt;stroke-linejoin:miter;stroke-miterlimit:4;stroke-dasharray:none;stroke-dashoffset:0;stroke-opacity:1.0;color-rendering:auto;image-rendering:auto;shape-rendering:auto;text-rendering:auto;enable-background:accumulate;stop-color:#000000;stop-opacity:1;stroke:none;" /></g>
	</g>
</g>
<g
   id="g8"
   transform="matrix(0.20926139,0,0,0.20926139,1.9768465e-4,0.40051438)"
   style="stroke-width:9.55742481;stroke-miterlimit:4;stroke-dasharray:none">
</g>
<g
   id="g10"
   transform="matrix(0.20926139,0,0,0.20926139,1.9768465e-4,0.40051438)"
   style="stroke-width:9.55742481;stroke-miterlimit:4;stroke-dasharray:none">
</g>
<g
   id="g12"
   transform="matrix(0.20926139,0,0,0.20926139,1.9768465e-4,0.40051438)"
   style="stroke-width:9.55742481;stroke-miterlimit:4;stroke-dasharray:none">
</g>
<g
   id="g14"
   transform="matrix(0.20926139,0,0,0.20926139,1.9768465e-4,0.40051438)"
   style="stroke-width:9.55742481;stroke-miterlimit:4;stroke-dasharray:none">
</g>
<g
   id="g16"
   transform="matrix(0.20926139,0,0,0.20926139,1.9768465e-4,0.40051438)"
   style="stroke-width:9.55742481;stroke-miterlimit:4;stroke-dasharray:none">
</g>
<g
   id="g18"
   transform="matrix(0.20926139,0,0,0.20926139,1.9768465e-4,0.40051438)"
   style="stroke-width:9.55742481;stroke-miterlimit:4;stroke-dasharray:none">
</g>
<g
   id="g20"
   transform="matrix(0.20926139,0,0,0.20926139,1.9768465e-4,0.40051438)"
   style="stroke-width:9.55742481;stroke-miterlimit:4;stroke-dasharray:none">
</g>
<g
   id="g22"
   transform="matrix(0.20926139,0,0,0.20926139,1.9768465e-4,0.40051438)"
   style="stroke-width:9.55742481;stroke-miterlimit:4;stroke-dasharray:none">
</g>
<g
   id="g24"
   transform="matrix(0.20926139,0,0,0.20926139,1.9768465e-4,0.40051438)"
   style="stroke-width:9.55742481;stroke-miterlimit:4;stroke-dasharray:none">
</g>
<g
   id="g26"
   transform="matrix(0.20926139,0,0,0.20926139,1.9768465e-4,0.40051438)"
   style="stroke-width:9.55742481;stroke-miterlimit:4;stroke-dasharray:none">
</g>
<g
   id="g28"
   transform="matrix(0.20926139,0,0,0.20926139,1.9768465e-4,0.40051438)"
   style="stroke-width:9.55742481;stroke-miterlimit:4;stroke-dasharray:none">
</g>
<g
   id="g30"
   transform="matrix(0.20926139,0,0,0.20926139,1.9768465e-4,0.40051438)"
   style="stroke-width:9.55742481;stroke-miterlimit:4;stroke-dasharray:none">
</g>
<g
   id="g32"
   transform="matrix(0.20926139,0,0,0.20926139,1.9768465e-4,0.40051438)"
   style="stroke-width:9.55742481;stroke-miterlimit:4;stroke-dasharray:none">
</g>
<g
   id="g34"
   transform="matrix(0.20926139,0,0,0.20926139,1.9768465e-4,0.40051438)"
   style="stroke-width:9.55742481;stroke-miterlimit:4;stroke-dasharray:none">
</g>
<g
   id="g36"
   transform="matrix(0.20926139,0,0,0.20926139,1.9768465e-4,0.40051438)"
   style="stroke-width:9.55742481;stroke-miterlimit:4;stroke-dasharray:none">
</g>
</svg>
